<?xml version="1.0" encoding="utf-8"?>
<svg viewBox="143.991 116.991 11.921 11.193" style="enable-background:new 0 0 499.999 500;" xmlns="http://www.w3.org/2000/svg">
  <g transform="matrix(0.0416409969329834, 0, 0, 0.0416409969329834, 139.3223876953125, 113.44153594970703)">
    <linearGradient id="SVGID_1_" gradientUnits="userSpaceOnUse" x1="208.3089" y1="107.4032" x2="238.3089" y2="159.9031">
      <stop offset="0" style="stop-color:#F0C83B"/>
      <stop offset="0.5201" style="stop-color:#E8A93E"/>
      <stop offset="1" style="stop-color:#E07935"/>
    </linearGradient>
    <path style="fill:url(#SVGID_1_);" d="M290.06,123.254c-8.919,2.675-17.351,6.776-25.073,11.602&#10;&#9;&#9;&#9;c-0.007,0.007-0.022,0.007-0.03,0.015c-17.543,10.966-31.42,25.671-38.943,35.928c-10.84,14.779-30.859,34.59-49.266,15.518&#10;&#9;&#9;&#9;c-3.015-3.126-4.766-6.983-5.372-11.225c-2.136-14.809,9.636-34.302,30.009-43.709C239.811,113.647,309.76,117.342,290.06,123.254&#10;&#9;&#9;&#9;z"/>
    <linearGradient id="SVGID_00000119078891806461647330000002964208834504649106_" gradientUnits="userSpaceOnUse" x1="272.8812" y1="116.3929" x2="195.3805" y2="192.8937">
      <stop offset="0" style="stop-color:#251665"/>
      <stop offset="0.505" style="stop-color:#A500AA"/>
      <stop offset="1" style="stop-color:#D74250"/>
    </linearGradient>
    <path style="fill:url(#SVGID_00000119078891806461647330000002964208834504649106_);" d="M301.539,129.49&#10;&#9;&#9;&#9;c-0.11,0.06-0.21,0.13-0.31,0.19c-1.91,1.09-6.53,2.92-10.05,4.78c-10.47,5.52-27.68,18.33-37.21,27.52&#10;&#9;&#9;&#9;c-11.86,11.44-22.74,25.13-32,39.6c-12.02,18.75-33.89,34.25-53.84,15.77c-8.42-7.8-10.86-21.43-0.85-36.75&#10;&#9;&#9;&#9;c1.19-1.81,2.55-3.65,4.1-5.51c0.58,4.11,2.24,7.85,5.09,10.93c0.04,0.04,0.08,0.09,0.13,0.13c0.04,0.06,0.1,0.11,0.15,0.17&#10;&#9;&#9;&#9;c18.41,19.07,38.42-0.74,49.27-15.52c7.52-10.26,21.4-24.96,38.94-35.93c0.01-0.01,0.02-0.01,0.03-0.01&#10;&#9;&#9;&#9;c11.69-5.77,21.31-7.33,27.87-7.37c4.82-0.03,7.99,0.76,9.12,1.29C302.259,128.91,302.069,129.17,301.539,129.49z"/>
    <linearGradient id="SVGID_00000129895898730161565090000004055178191414459816_" gradientUnits="userSpaceOnUse" x1="175.0685" y1="151.5711" x2="239.5685" y2="203.0711">
      <stop offset="0" style="stop-color:#F0C83B"/>
      <stop offset="0.5201" style="stop-color:#E8A93E"/>
      <stop offset="1" style="stop-color:#E07935"/>
    </linearGradient>
    <path style="fill:url(#SVGID_00000129895898730161565090000004055178191414459816_);" d="M301.225,129.683&#10;&#9;&#9;&#9;c-5.018,3.155-12.947,12.51-18.681,19.708c-0.007,0-0.007,0.007-0.015,0.007c-1.899,2.38-3.554,4.522-4.788,6.126&#10;&#9;&#9;&#9;c-12.533,16.301-36.216,53.559-43.103,68.967c-9.392,21.023-41.167,56.316-69.779,40.776c-0.177-0.096-0.362-0.2-0.539-0.303&#10;&#9;&#9;&#9;c-0.044-0.022-0.089-0.052-0.133-0.074c-28.812-16.493-21.925-57.616,3.096-84.285c-10.013,15.318-7.574,28.945,0.85,36.748&#10;&#9;&#9;&#9;c19.952,18.474,41.817,2.978,53.833-15.777c9.267-14.469,20.144-28.154,32.004-39.593c9.532-9.193,26.735-21.999,37.214-27.519&#10;&#9;&#9;&#9;C294.7,132.602,299.319,130.769,301.225,129.683z"/>
    <path style="fill:none;" d="M167.305,180.582c-0.007,0.007-0.015,0.015-0.022,0.022"/>
    <linearGradient id="SVGID_00000078738098293474392940000009952606905959317908_" gradientUnits="userSpaceOnUse" x1="180.2368" y1="294.7252" x2="265.7348" y2="167.228">
      <stop offset="0" style="stop-color:#D74250"/>
      <stop offset="0.495" style="stop-color:#A500AA"/>
      <stop offset="1" style="stop-color:#251665"/>
    </linearGradient>
    <path style="fill:url(#SVGID_00000078738098293474392940000009952606905959317908_);" d="M309.369,141.05&#10;&#9;&#9;&#9;c-9.59,9.8-23,16.96-40.5,51.42c-9.17,18.08-24.14,59.86-32.75,72.42c-2.24,3.25-4.98,6.72-8.27,10.02&#10;&#9;&#9;&#9;c-9.45,9.48-23.43,17.67-42.97,15.84c-9.43-0.88-15.27-5.5-18.25-11.58c0,0-0.01-0.02-0.01-0.03c-1.77-3.62-2.54-7.74-2.43-11.92&#10;&#9;&#9;&#9;c0.01-0.75,0.05-1.51,0.13-2.26c0.18,0.11,0.36,0.21,0.54,0.31c28.61,15.54,60.39-19.76,69.78-40.78&#10;&#9;&#9;&#9;c6.89-15.41,30.57-52.66,43.1-68.97c1.24-1.6,2.89-3.74,4.79-6.12c0.01,0,0.01-0.01,0.02-0.01c4.15-2.44,7.91-4.3,11.22-5.7&#10;&#9;&#9;&#9;C304.799,139.04,310.82,139.56,309.369,141.05z"/>
    <linearGradient id="SVGID_00000031177443156886375280000002559234915599214233_" gradientUnits="userSpaceOnUse" x1="222.601" y1="212.1933" x2="268.601" y2="232.6933">
      <stop offset="0" style="stop-color:#F0C83B"/>
      <stop offset="0.5201" style="stop-color:#E8A93E"/>
      <stop offset="1" style="stop-color:#E07935"/>
    </linearGradient>
    <path style="fill:url(#SVGID_00000031177443156886375280000002559234915599214233_);" d="M309.369,141.048&#10;&#9;&#9;&#9;c-0.754,1.478-6.229,11.528-11.853,23.27c0,0.007,0,0.007-0.007,0.015c-4.168,8.72-8.431,18.378-10.9,26.152&#10;&#9;&#9;&#9;c-4.914,15.466-19.228,64.74-22.169,73.423c-5.498,16.25-13.493,27.896-23.321,35.462c-0.333,0.259-0.665,0.502-0.998,0.746&#10;&#9;&#9;&#9;c-10.685,7.826-23.454,10.974-37.509,10.094c-17.816-1.116-31.31-12.496-35.987-31.036c2.985,6.082,8.823,10.693,18.252,11.579&#10;&#9;&#9;&#9;c19.538,1.825,33.526-6.362,42.97-15.843c3.296-3.303,6.037-6.769,8.269-10.02c8.616-12.562,23.58-54.343,32.758-72.418&#10;&#9;&#9;&#9;C286.365,158.014,299.784,150.846,309.369,141.048z"/>
    <line style="fill:none;" x1="281.887" y1="175.143" x2="281.887" y2="175.136"/>
    <linearGradient id="SVGID_00000037688376081003761670000015935786154897313408_" gradientUnits="userSpaceOnUse" x1="257.3618" y1="225.4901" x2="309.8619" y2="242.4901">
      <stop offset="0" style="stop-color:#F0C83B"/>
      <stop offset="0.5201" style="stop-color:#E8A93E"/>
      <stop offset="1" style="stop-color:#E07935"/>
    </linearGradient>
    <path style="fill:url(#SVGID_00000037688376081003761670000015935786154897313408_);" d="M311.541,270.055v0.007&#10;&#9;&#9;&#9;c-0.015,0.325-0.03,0.658-0.052,0.983c-1.271,24.43-16.198,41.647-35.647,43.598c-14.232,1.426-27.496-3.414-35.721-14.528&#10;&#9;&#9;&#9;c0.333-0.244,0.665-0.488,0.998-0.746c3.473,2.254,7.678,3.495,12.725,3.451c25.945-0.229,35.928-28.989,37.133-50.256&#10;&#9;&#9;&#9;c4.027-70.94,19.368-94.017,20.499-96.751c-0.333,4.958-5.668,19.996-6.392,34.672c-0.2,4.035-0.259,7.959-0.214,11.772v0.007&#10;&#9;&#9;&#9;c0.303,23.905,4.87,43.332,6.37,58.437C311.556,263.914,311.652,267.04,311.541,270.055z"/>
    <linearGradient id="SVGID_00000109741524037956822750000007816456210876302757_" gradientUnits="userSpaceOnUse" x1="295.8686" y1="224.4783" x2="337.8688" y2="226.9783">
      <stop offset="0" style="stop-color:#F0C83B"/>
      <stop offset="0.5201" style="stop-color:#E8A93E"/>
      <stop offset="1" style="stop-color:#E07935"/>
    </linearGradient>
    <path style="fill:url(#SVGID_00000109741524037956822750000007816456210876302757_);" d="M332.668,271.784&#10;&#9;&#9;&#9;c-7.973,3.059-15.016,2.387-21.178-0.739c0.022-0.325,0.037-0.658,0.052-0.983c2.852,0.525,5.705,0.185,8.564-1.086&#10;&#9;&#9;&#9;c13.057-5.808,8.993-28.841,3.451-41.034c-5.291-11.639-8.675-29.07-9.976-50.145c5.971,26.536,19.206,36.327,27.216,46.82&#10;&#9;&#9;&#9;C348.445,234.629,359.026,261.69,332.668,271.784z"/>
    <g>
      <path style="fill:#F0C83B;" d="M164.179,186.092c-1.675,3.626-2.823,7.506-3.19,11.472c-0.32,3.961,0.205,8.005,1.766,11.647&#10;&#9;&#9;&#9;&#9;c0.786,1.812,1.769,3.54,2.981,5.1c1.224,1.553,2.654,2.916,4.185,4.183c1.539,1.245,3.148,2.412,4.882,3.359&#10;&#9;&#9;&#9;&#9;c1.708,0.994,3.541,1.754,5.42,2.331c1.876,0.597,3.835,0.903,5.793,1.004c1.96,0.109,3.935-0.017,5.866-0.393&#10;&#9;&#9;&#9;&#9;c3.876-0.701,7.558-2.286,10.939-4.32c6.761-4.138,12.343-10.02,16.911-16.485c8.647-13.401,18.266-26.362,29.483-37.801&#10;&#9;&#9;&#9;&#9;c5.561-5.768,11.682-10.98,18.018-15.855c6.366-4.842,12.928-9.44,19.803-13.52c-6.79,4.219-13.248,8.945-19.502,13.906&#10;&#9;&#9;&#9;&#9;c-6.268,4.951-12.293,10.193-17.766,16.004c-5.502,5.775-10.695,11.844-15.539,18.181c-2.425,3.167-4.768,6.396-7.031,9.68&#10;&#9;&#9;&#9;&#9;c-1.133,1.641-2.24,3.3-3.334,4.967c-1.088,1.664-2.147,3.37-3.315,5.014c-4.657,6.535-10.333,12.483-17.258,16.687&#10;&#9;&#9;&#9;&#9;c-3.463,2.066-7.249,3.682-11.254,4.392c-3.988,0.757-8.176,0.504-12.039-0.729c-1.929-0.617-3.804-1.42-5.54-2.456&#10;&#9;&#9;&#9;&#9;c-1.764-0.99-3.39-2.198-4.94-3.482c-1.534-1.298-2.992-2.719-4.226-4.324c-1.222-1.614-2.216-3.391-2.986-5.256&#10;&#9;&#9;&#9;&#9;c-1.519-3.753-1.962-7.869-1.559-11.856C161.198,193.549,162.431,189.683,164.179,186.092z"/>
    </g>
    <linearGradient id="SVGID_00000085239621332194645250000010842373143997719948_" gradientUnits="userSpaceOnUse" x1="247.6076" y1="317.7097" x2="304.6068" y2="192.2118">
      <stop offset="0" style="stop-color:#D74250"/>
      <stop offset="0.495" style="stop-color:#A500AA"/>
      <stop offset="1" style="stop-color:#251665"/>
    </linearGradient>
    <path style="fill:url(#SVGID_00000085239621332194645250000010842373143997719948_);" d="M311.49,155.52&#10;&#9;&#9;&#9;c0,0.09-0.01,0.19-0.01,0.28v0.01c-1.14,2.74-16.48,25.81-20.5,96.75c-1.21,21.27-11.19,50.03-37.14,50.26&#10;&#9;&#9;&#9;c-2.77,0.02-5.29-0.34-7.57-1.06c-1.87-0.57-3.58-1.38-5.15-2.39c9.83-7.57,17.82-19.21,23.32-35.46&#10;&#9;&#9;&#9;c2.94-8.69,17.26-57.96,22.17-73.43c2.47-7.77,6.73-17.43,10.9-26.15c0.01-0.01,0.01-0.01,0.01-0.01c1.95-2.26,5.2-4.62,8.14-6.34&#10;&#9;&#9;&#9;C308.179,156.53,310.46,155.54,311.49,155.52z"/>
    <g>
      <path style="fill:#F0C83B;" d="M243.019,300.462c3.217,1.591,6.82,2.263,10.379,2.234c3.567-0.019,7.128-0.619,10.46-1.843&#10;&#9;&#9;&#9;&#9;c6.745-2.36,12.236-7.41,16.122-13.308c3.899-5.942,6.519-12.667,8.212-19.572c0.857-3.455,1.472-6.969,1.874-10.506&#10;&#9;&#9;&#9;&#9;c0.412-3.528,0.531-7.106,0.789-10.685c0.983-14.296,2.567-28.565,5.129-42.673c1.315-7.047,2.871-14.051,4.786-20.959&#10;&#9;&#9;&#9;&#9;c0.988-3.445,2.04-6.872,3.244-10.247c1.182-3.382,2.495-6.718,3.979-9.976c-1.41,3.291-2.644,6.653-3.747,10.055&#10;&#9;&#9;&#9;&#9;c-1.125,3.395-2.096,6.839-3.003,10.297c-1.813,6.917-3.282,13.921-4.501,20.966c-1.177,7.053-2.198,14.131-3.013,21.236&#10;&#9;&#9;&#9;&#9;c-0.77,7.109-1.433,14.232-1.877,21.37l-0.364,5.352c-0.118,1.791-0.252,3.591-0.475,5.376&#10;&#9;&#9;&#9;&#9;c-0.422,3.574-1.058,7.124-1.939,10.614c-1.754,6.966-4.389,13.799-8.458,19.78c-2.05,2.964-4.407,5.752-7.217,8.033&#10;&#9;&#9;&#9;&#9;c-2.783,2.301-5.952,4.159-9.379,5.306c-3.417,1.168-7.032,1.689-10.624,1.627C249.808,302.888,246.199,302.126,243.019,300.462z&#10;&#9;&#9;&#9;&#9;"/>
    </g>
    <g>
      <path style="fill:#F0C83B;" d="M169.363,283.368c2.968,3.448,7.154,5.677,11.552,6.622c2.199,0.517,4.459,0.652,6.714,0.753&#10;&#9;&#9;&#9;&#9;c2.255,0.084,4.514,0.043,6.759-0.151c4.489-0.371,8.939-1.292,13.162-2.851c4.223-1.557,8.221-3.692,11.907-6.266&#10;&#9;&#9;&#9;&#9;c7.307-5.229,13.51-12.043,18.096-19.756c2.247-3.9,4.147-8.012,6.049-12.109c1.876-4.114,3.667-8.27,5.432-12.437l10.523-25.048&#10;&#9;&#9;&#9;&#9;c3.547-8.328,7.1-16.702,11.496-24.648c2.187-3.974,4.434-7.917,6.895-11.731c2.426-3.833,5.023-7.562,7.835-11.124&#10;&#9;&#9;&#9;&#9;c2.812-3.561,5.831-6.957,9.049-10.15c3.205-3.209,6.644-6.162,10.038-9.158c-3.34,3.057-6.725,6.071-9.865,9.33&#10;&#9;&#9;&#9;&#9;c-3.153,3.244-6.1,6.682-8.837,10.278c-2.757,3.581-5.311,7.317-7.688,11.161c-2.413,3.823-4.612,7.775-6.751,11.757&#10;&#9;&#9;&#9;&#9;c-4.272,7.972-7.831,16.289-11.335,24.638l-10.443,25.086c-1.781,4.166-3.589,8.323-5.484,12.443&#10;&#9;&#9;&#9;&#9;c-1.924,4.107-3.84,8.223-6.13,12.168c-4.703,7.819-10.953,14.711-18.444,19.928c-3.763,2.573-7.839,4.696-12.132,6.229&#10;&#9;&#9;&#9;&#9;c-4.293,1.533-8.803,2.428-13.338,2.744c-2.269,0.155-4.547,0.156-6.813,0.031c-2.263-0.142-4.541-0.319-6.752-0.881&#10;&#9;&#9;&#9;&#9;C176.439,289.194,172.266,286.869,169.363,283.368z"/>
    </g>
    <path style="fill:none;" d="M311.49,155.524c0.074,0,0.066,0.089-0.015,0.281"/>
    <linearGradient id="SVGID_00000044878351100866531880000003052025181646295447_" gradientUnits="userSpaceOnUse" x1="296.3793" y1="290.0235" x2="319.3775" y2="219.029">
      <stop offset="0" style="stop-color:#D74250"/>
      <stop offset="0.495" style="stop-color:#A500AA"/>
      <stop offset="1" style="stop-color:#251665"/>
    </linearGradient>
    <path style="fill:url(#SVGID_00000044878351100866531880000003052025181646295447_);" d="M320.109,268.98&#10;&#9;&#9;&#9;c-1.87,0.83-3.74,1.26-5.6,1.31c-0.99,0.03-1.98-0.05-2.97-0.23v-0.01c0.11-3.01,0.02-6.14-0.3-9.35&#10;&#9;&#9;&#9;c-0.75-7.55-2.27-16.18-3.64-25.92c-1.36-9.73-2.58-20.56-2.73-32.52c1.4-6.79,2.94-13.19,4.33-18.02&#10;&#9;&#9;&#9;c1.53-5.3,2.88-8.72,3.67-8.72c0.37,0,0.61,0.71,0.71,2.28c1.3,21.07,4.69,38.5,9.98,50.14&#10;&#9;&#9;&#9;C329.099,240.13,333.159,263.17,320.109,268.98z"/>
    <g>
      <path style="fill:#F0C83B;" d="M314.593,270.29c3.959-0.276,7.848-2.119,10.193-5.278c2.361-3.159,3.287-7.152,3.538-11.055&#10;&#9;&#9;&#9;&#9;c0.225-3.935-0.129-7.899-0.858-11.783c-0.734-3.885-1.823-7.708-3.259-11.387c-0.692-1.837-1.573-3.629-2.295-5.512&#10;&#9;&#9;&#9;&#9;c-0.751-1.861-1.38-3.764-1.992-5.669c-1.183-3.824-2.158-7.707-2.916-11.63c-1.544-7.84-2.47-15.78-2.952-23.735&#10;&#9;&#9;&#9;&#9;c0.456,3.959,0.934,7.913,1.559,11.845c0.592,3.935,1.291,7.853,2.146,11.734c0.872,3.876,1.814,7.737,3.03,11.512&#10;&#9;&#9;&#9;&#9;c0.621,1.882,1.257,3.76,2.012,5.589c0.716,1.833,1.613,3.616,2.338,5.504c1.433,3.755,2.506,7.636,3.222,11.585&#10;&#9;&#9;&#9;&#9;c0.695,3.947,1.08,7.983,0.728,12.004c-0.35,3.981-1.385,8.083-3.917,11.299C322.604,268.488,318.566,270.239,314.593,270.29z"/>
    </g>
    <linearGradient id="SVGID_00000117659789026314488520000017671458472404650128_" gradientUnits="userSpaceOnUse" x1="187.7623" y1="199.395" x2="257.0122" y2="136.395">
      <stop offset="0" style="stop-color:#D74250"/>
      <stop offset="0.495" style="stop-color:#A500AA"/>
      <stop offset="1" style="stop-color:#251665"/>
    </linearGradient>
    <path style="fill:url(#SVGID_00000117659789026314488520000017671458472404650128_);" d="M292.859,127.49&#10;&#9;&#9;&#9;c-8.87,2.67-17.25,6.76-24.93,11.56c-0.01,0.01-0.02,0.01-0.03,0.01c-17.54,10.97-31.42,25.67-38.94,35.93&#10;&#9;&#9;&#9;c-10.84,14.78-30.86,34.59-49.27,15.52c-1.32-1.37-2.37-2.88-3.22-4.49c-0.01-0.01-0.01-0.03-0.02-0.04&#10;&#9;&#9;&#9;c0.05,0.06,0.1,0.11,0.15,0.17c0.04,0.06,0.1,0.11,0.15,0.17c18.41,19.07,38.42-0.74,49.27-15.52&#10;&#9;&#9;&#9;c7.52-10.26,21.4-24.96,38.94-35.93c0.01-0.01,0.02-0.01,0.03-0.01C276.68,129.09,286.299,127.53,292.859,127.49z"/>
    <g>
      <linearGradient id="SVGID_00000118386412314940411800000007343862577456499384_" gradientUnits="userSpaceOnUse" x1="189.3154" y1="264.5494" x2="265.8153" y2="155.2994">
        <stop offset="0" style="stop-color:#D74250"/>
        <stop offset="0.495" style="stop-color:#A500AA"/>
        <stop offset="1" style="stop-color:#251665"/>
      </linearGradient>
      <path style="fill:url(#SVGID_00000118386412314940411800000007343862577456499384_);" d="M293.77,143.69&#10;&#9;&#9;&#9;&#9;c-2.9,3.25-5.79,6.77-8.28,9.89c-0.01,0-0.01,0.01-0.02,0.01c-1.9,2.38-3.55,4.52-4.78,6.13c-12.54,16.3-36.22,53.56-43.11,68.96&#10;&#9;&#9;&#9;&#9;c-9.39,21.03-41.17,56.32-69.78,40.78c-0.18-0.1-0.36-0.2-0.54-0.3c-0.04-0.03-0.09-0.06-0.13-0.08c-1.02-0.59-2-1.21-2.94-1.86&#10;&#9;&#9;&#9;&#9;c0.01-0.75,0.05-1.51,0.13-2.26c0.18,0.11,0.36,0.21,0.54,0.31c28.61,15.54,60.39-19.76,69.78-40.78&#10;&#9;&#9;&#9;&#9;c6.89-15.41,30.57-52.66,43.1-68.97c1.24-1.6,2.89-3.74,4.79-6.12c0.01,0,0.01-0.01,0.02-0.01&#10;&#9;&#9;&#9;&#9;C286.699,146.95,290.46,145.09,293.77,143.69z"/>
    </g>
    <g>
      <linearGradient id="SVGID_00000024003606111139685250000007280304180410809023_" gradientUnits="userSpaceOnUse" x1="250.2681" y1="290.6962" x2="297.768" y2="180.9462">
        <stop offset="0" style="stop-color:#D74250"/>
        <stop offset="0.495" style="stop-color:#A500AA"/>
        <stop offset="1" style="stop-color:#251665"/>
      </linearGradient>
      <path style="fill:url(#SVGID_00000024003606111139685250000007280304180410809023_);" d="M305.659,157.98&#10;&#9;&#9;&#9;&#9;c-1.62,3.18-3.4,6.77-5.2,10.53c0,0.01,0,0.01-0.01,0.02c-4.17,8.72-8.43,18.37-10.9,26.15c-4.91,15.46-19.23,64.74-22.17,73.42&#10;&#9;&#9;&#9;&#9;c-5.07,15.01-12.29,26.1-21.11,33.66c-1.87-0.57-3.58-1.38-5.15-2.39c9.83-7.57,17.82-19.21,23.32-35.46&#10;&#9;&#9;&#9;&#9;c2.94-8.69,17.26-57.96,22.17-73.43c2.47-7.77,6.73-17.43,10.9-26.15c0.01-0.01,0.01-0.01,0.01-0.01&#10;&#9;&#9;&#9;&#9;C299.469,162.06,302.719,159.7,305.659,157.98z"/>
      <linearGradient id="SVGID_00000023975445375761434940000014152908476911389328_" gradientUnits="userSpaceOnUse" x1="179.8473" y1="260.2176" x2="227.3479" y2="150.466">
        <stop offset="0" style="stop-color:#D74250"/>
        <stop offset="0.495" style="stop-color:#A500AA"/>
        <stop offset="1" style="stop-color:#251665"/>
      </linearGradient>
      <path style="fill:url(#SVGID_00000023975445375761434940000014152908476911389328_);" d="M169.854,283.909&#10;&#9;&#9;&#9;&#9;c-0.095-0.181-0.196-0.358-0.286-0.542c0.028,0.11,0.06,0.216,0.088,0.325C169.721,283.765,169.788,283.836,169.854,283.909z"/>
    </g>
    <linearGradient id="SVGID_00000130631684145787007060000006170068522081021876_" gradientUnits="userSpaceOnUse" x1="309.4772" y1="262.5999" x2="309.9772" y2="200.5999">
      <stop offset="0" style="stop-color:#D74250"/>
      <stop offset="0.495" style="stop-color:#A500AA"/>
      <stop offset="1" style="stop-color:#251665"/>
    </linearGradient>
    <path style="fill:url(#SVGID_00000130631684145787007060000006170068522081021876_);" d="M311.539,270.05&#10;&#9;&#9;&#9;c0.11-3.01,0.02-6.14-0.3-9.35c-0.75-7.55-2.27-16.18-3.64-25.92c-1.36-9.73-2.58-20.56-2.73-32.52&#10;&#9;&#9;&#9;c1.4-6.79,2.94-13.19,4.33-18.02c-0.56,3.4-1,6.93-1.17,10.44c-0.2,4.03-0.26,7.96-0.22,11.77v0.01&#10;&#9;&#9;&#9;c0.31,23.9,4.87,43.33,6.37,58.43c0.18,1.83,0.29,3.63,0.33,5.4c-0.99,0.03-1.98-0.05-2.97-0.23V270.05z"/>
  </g>
</svg>