<?xml version="1.0" encoding="utf-8"?>
<svg viewBox="216.853 156.134 140.644 90.458" xmlns="http://www.w3.org/2000/svg" xmlns:xlink="http://www.w3.org/1999/xlink" xmlns:bx="https://boxy-svg.com">
  <defs>
    <linearGradient id="color-0-0" gradientUnits="userSpaceOnUse" x1="284.076" y1="167.906" x2="284.076" y2="216.233" gradientTransform="matrix(1.048064, 0, 0, 1.034618, -12.507412, -5.81264)" xlink:href="#color-0"/>
    <linearGradient id="color-0" bx:pinned="true">
      <stop style="stop-color: #3494e6;" offset="0"/>
      <stop style="stop-color: #ec6ead;" offset="1"/>
    </linearGradient>
  </defs>
  <path d="M 271.375 167.906 H 299.071 A 11.152 11.152 0 0 1 310.223 179.058 V 206.754 A 11.152 11.152 0 0 1 299.071 217.906 H 271.375 A 11.152 11.152 0 0 1 260.223 206.754 V 179.058 A 11.152 11.152 0 0 1 271.375 167.906 Z M 268.223 182.75 V 203.062 A 7.152 7.152 0 0 0 275.375 210.214 H 295.071 A 7.152 7.152 0 0 0 302.223 203.062 V 182.75 A 7.152 7.152 0 0 0 295.071 175.598 H 275.375 A 7.152 7.152 0 0 0 268.223 182.75 Z" style="paint-order: fill; fill-rule: nonzero; fill: url('#color-0-0'); stroke: rgb(0, 0, 0); stroke-opacity: 0;" transform="matrix(1, 0, 0, 1, 0, 7.105427357601002e-15)" bx:shape="frame 260.223 167.906 50 50 8 7.692 11.152 11.152 11.152 11.152 1@da38dd6c"/>
  <rect style="stroke: rgb(0, 0, 0); stroke-opacity: 0; fill: rgb(146, 128, 201);" x="275.2" y="182.9" width="20" height="20" rx="7" ry="7" transform="matrix(1, 0, 0, 1, 0, 7.105427357601002e-15)"/>
  <path style="fill: rgb(216, 216, 216); fill-opacity: 0; stroke-linecap: round; stroke-width: 7px; stroke: rgb(146, 128, 201); transform-origin: 287.328px 204.724px;" d="M 295.995 238.302 C 303.159 242.261 310.326 246.014 317.49 249.553 C 346.304 263.793 327.756 207.112 244.47 157.664" transform="matrix(0.358368963003, -0.933580219746, 0.933580219746, 0.358368963003, 0.000032525956, 0.000010035361)"/>
  <path style="fill: rgb(216, 216, 216); stroke-width: 7px; stroke: rgb(146, 128, 201); stroke-linecap: round; fill-opacity: 0; transform-origin: 228.935px 211.896px;" d="M 220.57 198.885 L 223.04833333333332 199.60783333333333 C 225.52666666666664 200.33066666666664 230.48333333333335 201.77633333333333 233.27149999999997 206.11333333333334 C 236.05966666666666 210.45033333333333 236.67933333333335 217.6786666666667 236.98916666666665 221.29283333333333 L 237.299 224.907" transform="matrix(0.809017002583, 0.587785005569, -0.587785005569, 0.809017002583, -0.000006934676, 0.000005693313)" bx:d="M 220.57 198.885 U 235.44 203.222 U 237.299 224.907 1@9a49cd84"/>
  <path style="fill: rgb(216, 216, 216); fill-opacity: 0; stroke-width: 7px; stroke-linecap: round; stroke: rgb(146, 128, 201); transform-origin: 245.044px 223.27px;" d="M 228.005 218.71 L 230.68983333333335 218.60683333333336 C 233.37466666666668 218.50366666666665 238.74433333333332 218.29733333333334 244.42383333333336 219.84633333333332 C 250.10333333333332 221.39533333333335 256.0926666666667 224.69966666666664 259.08733333333333 226.3518333333333 L 262.082 228.004" transform="matrix(0.882946848869, -0.469472050667, 0.469472050667, 0.882946848869, 0.000005061644, -0.000015856329)" bx:d="M 228.005 218.71 U 244.114 218.091 U 262.082 228.004 1@386eef0e"/>
</svg>